<?xml version="1.0" encoding="utf-8"?>
<!-- Generator: Adobe Illustrator 19.0.0, SVG Export Plug-In . SVG Version: 6.00 Build 0)  -->
<svg version="1.1" id="layer" xmlns="http://www.w3.org/2000/svg" xmlns:xlink="http://www.w3.org/1999/xlink" x="0px" y="0px"
	 viewBox="-153 -46 652 652" style="enable-background:new -153 -46 652 652;" xml:space="preserve">
<style type="text/css">
	.st0{fill:#FFA400;}
</style>
<path d="M251.7,318.2c-1-5.6-3.4-8.5-8.8-8.5c-4.8-0.3-8.9,3.4-9.2,8.2c0,0.1,0,0.2,0,0.4H251.7z M233.8,325.2
	c0.3,7,3.7,10.2,9.8,10.2c3.7,0.2,7.1-1.9,8.7-5.2h9.6c-2.2,8.3-10,13.9-18.6,13.3c-10.8,0.5-20-7.8-20.5-18.6c0-0.8,0-1.7,0-2.5
	c-0.6-11.1,7.9-20.6,19-21.2c0.5,0,1,0,1.5,0c13.7,0,20.3,11.5,19.5,24H233.8z M269.4,302.4h10.5v5.6l0,0c2.7-4.2,7.3-6.7,12.3-6.7
	c11.7,0,14.7,6.6,14.7,16.6v24.7h-11v-22.7c0-6.6-1.9-9.8-7.1-9.8c-6,0-8.5,3.4-8.5,11.5v21h-11v-40.1H269.4z M342.5,318.2
	c-1-5.6-3.4-8.5-8.8-8.5c-4.8-0.3-8.9,3.4-9.2,8.2c0,0.1,0,0.2,0,0.4H342.5z M324.6,325.2c0.3,7,3.7,10.2,9.8,10.2
	c3.7,0.2,7.1-1.9,8.7-5.2h9.6c-2.2,8.3-10,13.9-18.6,13.3c-10.8,0.5-20-7.9-20.5-18.7c0-0.8,0-1.6,0-2.4c-0.6-11.1,7.9-20.6,19-21.2
	c0.5,0,1,0,1.5,0c13.7,0,20.3,11.5,19.5,24H324.6z M360.1,302.4h10.5v7.5l0,0c2.3-5.1,7.3-8.4,12.8-8.5c0.8,0,1.6,0.1,2.4,0.4V312
	c-1.3-0.3-2.6-0.4-4-0.4c-8.1,0-10.8,5.8-10.8,12.9v18h-11v-40.1H360.1z M418.5,322c0-6.5-2.3-12.3-9.6-12.3
	c-6.2,0-8.9,5.4-8.9,11.4c0,6,2.2,12,8.9,12c5.5-0.1,9.8-4.6,9.7-10.1C418.6,322.7,418.6,322.4,418.5,322L418.5,322z M429,340
	c0,6.6-2.4,17.8-20.8,17.8c-7.9,0-17.1-3.7-17.7-12.9h10.9c0.9,3.7,4.5,6,8.2,5.5c6.1,0,8.9-4.2,8.8-9.9v-5.3l0,0
	c-2.6,4.1-7.2,6.4-12,6.2c-12,0-17.2-9.2-17.2-20.2c0-11,6-19.9,17.2-19.9c4.9-0.4,9.6,2.1,12,6.4l0,0v-5.3h10.5V340L429,340z
	 M457.7,347.6c-1.7,6.1-7.6,9.9-13.8,9.1c-2.3,0-4.5-0.1-6.8-0.4v-9.1c2.1,0.2,4.3,0.4,6.4,0.4c2.8-0.4,4.8-3.1,4.3-5.9
	c-0.1-0.6-0.3-1.1-0.5-1.6l-14.1-37.7h11.8l9.1,27.5l0,0l8.8-27.5h11.6L457.7,347.6L457.7,347.6z M-105.2,378.5
	c0-3.6-1.2-6.8-5.2-6.8c-3.9,0-4.8,3-4.8,6.3s1.2,6.6,4.8,6.6c3-0.1,5.3-2.6,5.2-5.6C-105.1,378.9-105.1,378.7-105.2,378.5z
	 M-99.4,388.5c0,3.6-1.3,9.6-11.5,9.6c-4.4,0-9.6-2.1-9.6-7.1h5.9c0.5,2,2.5,3.3,4.5,3c3.4,0,4.8-2.3,4.8-5.5v-2.9l0,0
	c-1.4,2.2-4,3.5-6.6,3.4c-6.6,0-9.6-5-9.6-11.1c-0.6-5.4,3.3-10.3,8.8-10.9c0.3,0,0.6,0,0.8-0.1c2.7-0.2,5.3,1.2,6.6,3.6l0,0v-2.9
	h5.8v20.7L-99.4,388.5z M-83.8,385.9c4.1,0,5.4-3.6,5.4-7.1c0-3.5-1.2-7.1-5.4-7.1c-4.1,0-5.3,3.6-5.3,7.1
	C-89.1,382.4-87.8,385.9-83.8,385.9z M-83.8,367.2c6.4,0,11.7,5.2,11.7,11.7c0,6.4-5.2,11.7-11.7,11.7c-6.4,0-11.7-5.2-11.7-11.7
	C-95.4,372.4-90.2,367.2-83.8,367.2z M-55.1,371.8h-3.6v-4.1h3.6v-1.7c-0.2-3.6,2.6-6.6,6.2-6.8c0.4,0,0.8,0,1.2,0.1
	c1.1,0,2.2,0,3.2,0v4.5h-2.2c-1.6,0-2.3,0.7-2.3,2.5v1.3h4.2v4.1h-4.2v18h-6.1V371.8z M-21.5,389.9h-5.8v-3.2l0,0
	c-1.5,2.3-4,3.7-6.8,3.7c-6.5,0-8.1-3.6-8.1-9.1v-13.5h6.1v12.5c0,3.6,1.1,5.4,3.9,5.4c2.8,0,4.8-1.8,4.8-6.3v-11.6h6.1v22.1H-21.5z
	 M-16.8,367.7h5.8v4.1l0,0c1.2-2.9,4-4.7,7.1-4.8c0.4-0.1,0.9-0.1,1.3,0v5.7c-0.7-0.1-1.4-0.1-2.2,0c-4.5,0-6,3.2-6,7.1v10h-6V367.7
	z M8.4,367.7h4.5v4.1H8.4v10.9c0,2.1,0.5,2.5,2.5,2.5c0.6,0.1,1.2,0.1,1.9,0v4.8c-1.2,0.1-2.4,0.1-3.6,0c-3.7,0-7-0.9-7-5.3v-13
	h-3.7v-4.1h3.7v-6.6h6.1C8.4,361.1,8.4,367.7,8.4,367.7z M16.6,359.3h6.1v11.5l0,0c1.4-2.3,3.8-3.6,6.5-3.7c6.5,0,8.1,3.6,8.1,9.1
	v13.6h-6v-12.5c0-3.6-1.1-5.4-3.9-5.4s-4.8,1.8-4.8,6.3v11.6h-6V359.3z M57.6,376.4c-0.6-3.1-1.9-4.8-4.8-4.8
	c-2.6-0.1-4.9,1.9-5,4.6c0,0.1,0,0.2,0,0.2H57.6z M47.8,380.3c0,3.8,2.1,5.6,5.4,5.6c2.1,0.2,4-1,4.8-2.9h5.3
	c-1.2,4.7-5.6,7.8-10.4,7.4c-6,0.3-11-4.3-11.3-10.3c0-0.4,0-0.9,0-1.3c-0.4-6.1,4.2-11.4,10.4-11.9c6.1-0.4,11.4,4.2,11.9,10.4
	c0.1,1,0,2-0.2,2.9L47.8,380.3z M68.2,367.7H74v4.1l0,0c1.2-2.9,4-4.7,7.1-4.8c0.4-0.1,0.9-0.1,1.3,0v5.7c-0.7-0.1-1.4-0.1-2.2,0
	c-4.5,0-6,3.2-6,7.1v10h-6V367.7z"/>
<path class="st0" d="M-44.8,337c0,3.1,2.5,5.7,5.7,5.7c0,0,0.1,0,0.1,0h4.8c3.1,0,5.7-2.5,5.7-5.7l0,0v-37.2
	c-0.2-4.4,1.2-8.7,3.9-12.1c3.1-3.5,7.7-5.4,12.4-5.1h0.5c1.3,0.1,2.7-0.3,3.6-1.2c1.1-1.1,1.8-2.6,1.7-4.1v-5.7c0-1.5-0.6-3-1.7-4
	c-1-1-2.4-1.6-3.9-1.5l0,0c-5.2-0.1-10.3,1.9-14,5.6c-2,1.8-3.8,3.8-5.3,6c-0.1,0.2-0.2,0.3-0.3,0.4c0.7-0.4,1.6-0.2,2.1,0.5
	c0,0,0,0.1,0.1,0.1c0-0.2,0-0.4,0-0.5v-4.8c0-3.1-2.5-5.7-5.7-5.7l0,0h-3.9c-3.1,0-5.7,2.5-5.7,5.7l0,0L-44.8,337L-44.8,337z
	 M2.4,337c0,3.1,2.5,5.7,5.7,5.7l0,0h4.8c3.1,0,5.6-2.6,5.6-5.7v-37.2c-0.1-4.4,1.5-8.8,4.4-12.1c3.1-3.5,7.7-5.4,12.4-5.1h0.5
	c1.3,0.1,2.7-0.3,3.6-1.2c1.1-1.1,1.8-2.6,1.7-4.1v-5.7c0-1.5-0.6-3-1.7-4c-1-1-2.4-1.6-3.9-1.5l0,0c-5.3-0.2-10.5,1.9-14.3,5.6
	c-2,1.8-3.7,3.8-5.2,6c-0.1,0.2-0.2,0.3-0.3,0.4c0.4-0.2,0.8-0.2,1.2,0c0.4,0.1,0.7,0.4,0.9,0.8c0-0.2,0-0.4,0-0.5v-4.8
	c0-3.1-2.5-5.7-5.7-5.7l0,0H8.2c-3.1,0-5.7,2.5-5.7,5.7l0,0L2.4,337L2.4,337z M95.3,323.1c-3,5.5-9.1,8.6-15.4,7.9
	c-5.8,0.5-11.4-2-14.9-6.7c-3.4-5.3-5.1-11.5-4.8-17.8c-0.2-6.7,1.4-13.4,4.8-19.2c3.2-5.1,9-7.9,15-7.4c6.8-0.6,13.2,2.8,16.5,8.8
	c2.3,4.8,3.3,10,3.1,15.3C99.8,310.6,98.3,317.2,95.3,323.1L95.3,323.1z M106.3,275.1c-7.1-6.4-16.3-9.8-25.9-9.6
	c-10.3-0.4-20.3,3.7-27.3,11.3c-7,8.3-10.6,19-10.1,29.9c-0.5,10.2,2.9,20.2,9.6,28c6.7,7.1,16.2,11,26,10.6c13,0,22.7-4,28.8-12
	c6.4-8.5,9.6-19,9.3-29.6c0.7-10.6-3.2-20.9-10.7-28.4L106.3,275.1z M-78.3,294.2h-0.2v0.4l0.4-0.6L-78.3,294.2z M-61.9,331
	c0,0,0-0.3,0-0.5l-0.3-0.4L-61.9,331L-61.9,331z M-61.7,330.8L-61.7,330.8L-61.7,330.8L-61.7,330.8L-61.7,330.8z M-76.1,335.6
	c-0.3,0-0.6-0.2-0.7-0.5v0.8l0,0h0.3L-76.1,335.6z M-77.8,308.2H-78v3.4c0,1.5,0,4.1-0.3,5.7c-0.2,1.8-0.8,3.6-1.6,5.2
	c-1.7,2.8-4.1,5-7.1,6.2c-3.5,1.8-7.4,2.7-11.3,2.7c-2.7,0.1-5.4-0.7-7.6-2.4c-2-1.6-3.2-4-3-6.6c-0.2-3.4,1.5-6.6,4.5-8.2
	c2-0.9,4.1-1.5,6.2-1.9c1.6-0.3,4.1-0.7,5.7-0.9h1.3l5.9-0.9c1.4-0.2,2.7-0.5,4-0.9c1.1-0.3,2.1-0.6,3.1-1.1v-0.3l0,0
	c0.1,0.2,0.3,0.3,0.5,0.3l0,0L-77.8,308.2z M-59,331.1h-1.1c-1.3,0-1.6-0.3-1.6-0.3l0,0v-0.3c0,0,0,0.3,0,0.5l-0.3-0.9l0.3,0.4
	c0-1.2,0-3.1,0-4.5v-35c0-1.7,0-4.4-0.3-6.1c-0.2-2-0.7-3.9-1.5-5.8c-1.6-3.2-4.1-5.9-7.3-7.6c-6.5-3.6-13.9-5.4-21.4-5.1
	c-5.3-0.1-10.5,1-15.3,3c-1.7,0.7-3.3,1.5-4.8,2.5c-1.6,1-3,2.3-4.2,3.8c-0.9,1.2-1.8,2.5-2.6,3.9c-0.6,1.5-1.2,3-1.6,4.5
	c-0.6,1.9-0.8,4-0.7,6c0.6,2.2,2.6,3.7,4.8,3.8h5c2.6-0.1,4.7-2,5.3-4.5c0.3-1.7,1-3.3,1.9-4.8c3-3.2,7.3-4.8,11.7-4.3
	c3.9-0.2,7.9,0.6,11.4,2.4c2.4,1.6,3.7,4.4,3.5,7.2c0.1,1.3-0.1,2.5-0.6,3.7l-0.2,0.5h0.2l-0.4,0.6v-0.4c-0.5,0.4-1,0.8-1.5,1.1
	c-1.6,0.4-3.2,0.7-4.8,0.9l-3.2,0.4l-5.9,0.7l-4.1,0.5l-6,0.9c-1.8,0.3-3.6,0.8-5.3,1.3c-3.3,1.2-6.4,3-9.1,5.3
	c-4.7,4.3-7.2,10.6-6.8,17c-0.1,6.2,2.3,12.2,6.9,16.5c4.7,4.4,11,6.8,17.5,6.5c5.6,0.1,11-1.2,16-3.7c1.7-0.9,3.3-1.9,4.8-3
	c1.3-1,2.8-2.2,3.6-2.9v-0.8c0.1,0.3,0.4,0.5,0.7,0.5h-0.3l0,0c0.3,1.2,0.8,2.4,1.5,3.5c2.3,3.6,6.4,5.6,10.7,5.3
	c1.4,0.1,2.8,0.1,4.3,0l1.6-0.3c2.5-0.7,4.2-3,4.3-5.6v-2.4c0-2.7-2.1-4.9-4.8-5.1L-59,331.1z M-78.1,307.8L-78.1,307.8v0.3h0.2l0,0
	c-0.2,0-0.4-0.1-0.5-0.3H-78.1z M217.4,269.4c-0.9-1.2-2.4-1.9-3.9-1.8h-4.6c-3,0.1-5.7,2.1-6.5,5l-11.7,44.7l-11.2-44.6
	c-0.8-2.9-3.5-5-6.5-5.1h-6c-3,0.1-5.7,2.2-6.5,5.1l-11,44.7l-11-44.7c-0.8-2.9-3.4-5-6.5-5.1h-5.6c-2.6-0.1-4.9,2-5,4.6
	c0,0.5,0,1,0.2,1.4l18.5,64c1,2.8,3.6,4.7,6.6,4.8h4.8c3.1-0.1,5.7-2.2,6.5-5.1l11.2-44.1l11.6,44.1c0.9,2.9,3.5,4.9,6.5,5h4.8
	c3-0.1,5.6-2,6.6-4.8l18.6-64c0.5-1.4,0.2-3-0.7-4.2L217.4,269.4z M329.8,211.8c3.1,3.4,3.1,8.6,0,12l-33.6,34.9
	c-2,1.4-2.5,4.1-1.1,6.1c0.8,1.2,2.1,1.9,3.5,1.9l19.9,4.8c4.9,0.9,9.9-0.8,13.2-4.5l33.9-42.4c2.8-3.9,2.8-9.1,0-13l-33.2-42.8
	c-3.3-3.8-8.2-5.6-13.2-4.8l-20,4.8c-2.4,0.1-4.3,2.1-4.2,4.5c0,1.4,0.7,2.6,1.8,3.4L329.8,211.8L329.8,211.8z M266,180.7l-13.9,3.1
	c-1.5,0.2-2.9,1.2-3.5,2.7c-0.1,0.4-0.1,0.8,0,1.2c0,0.9,0.4,1.8,0.9,2.5c0.7,1.2,1.6,2.3,2.5,3.3l1.6,2l0,0l15.3,18.7
	c0.8,0.9,1.2,2.1,1.2,3.4c0.1,1.2-0.4,2.4-1.2,3.4l-15.7,18.7l0,0l-1.7,2c-1,1-1.8,2.1-2.5,3.3c-0.6,0.7-0.9,1.6-1,2.5
	c-0.1,0.4-0.1,0.7,0,1.1c0.6,1.4,1.9,2.5,3.4,2.7l13.8,3.3c3.8,0.6,7.6-0.7,10.2-3.5l22.9-27.7l0.5-0.7c2.3-3,2.3-7.1,0-10.1
	L276.1,184c-2.6-2.8-6.4-4.2-10.1-3.6L266,180.7z M214.3,196.3c-1.7,0.4-2.4,1.7-1.8,3c-0.3,0.3,1.6,3,1.6,3.4l7.4,12.6
	c0.9,1.6,0.9,3.5,0,5.1l-7.7,12.7c0,0.4-2,3.1-1.7,3.4c-0.6,1.3,0,2.6,1.7,3l9.6,2.1l0,0c2.4,0.3,4.7-0.4,6.4-2.1l15.7-18.1l0.3-0.4
	c1.3-1.7,1.3-4.1,0-5.9l-15.6-18.6c-1.7-1.7-4-2.5-6.4-2.2l0,0L214.3,196.3L214.3,196.3z M200.9,218.7l-6.4,6.4
	c-0.6,0.5-1.4,0.8-2.2,0.7l-1.7-0.3c-0.7-0.2-1.3-0.8-1.3-1.5v-12.2c0-0.7,0.5-1.4,1.2-1.5l1.7-0.3c0.8-0.1,1.6,0.1,2.2,0.7l6.4,6.3
	C201.4,217.4,201.4,218.2,200.9,218.7z M208,215.9l-10.6-10.5c-1.1-1-2.5-1.5-3.9-1.5h-0.7l-6.3,1.4c-1.5,0.3-2.6,1.7-2.6,3.2v18.9
	l0,0c0.1,1.5,1.2,2.8,2.7,3.2l6.5,1.2h0.8c1.4,0,2.8-0.5,3.8-1.5l10.5-10.6c1-1.1,1-2.8,0-3.8L208,215.9z"/>
</svg>
